<svg width="80" height="80" viewBox="0 0 80 80" fill="none" xmlns="http://www.w3.org/2000/svg">
<path d="M28.8122 11.1882C28.8122 5.00948 33.8217 0 40.0013 0C46.1792 0 51.1886 5.00948 51.1886 11.1882C51.1886 17.367 46.1792 22.3765 40.0013 22.3765C33.8217 22.3765 28.8122 17.367 28.8122 11.1882ZM45.3774 29.999C45.4906 27.5631 46.3283 25.3079 47.6782 23.4431C46.7309 23.2448 45.7529 23.1396 44.7485 23.1396H35.255C34.2541 23.1396 33.2761 23.244 32.334 23.4405C33.7699 25.4325 34.6295 27.864 34.6436 30.4972C36.3874 29.5367 38.3899 28.9903 40.5179 28.9903C42.2442 28.9903 43.8871 29.3499 45.3774 29.999ZM47.2721 31.0025C50.522 33.0401 52.8009 36.4883 53.2158 40.4908C54.5412 41.1101 56.0122 41.4662 57.5718 41.4662C63.2654 41.4662 67.8802 36.8514 67.8802 31.1586C67.8802 25.465 63.2654 20.8502 57.5718 20.8502C51.9325 20.8511 47.3581 25.3834 47.2721 31.0025ZM40.5179 52.1097C46.2116 52.1097 50.8264 47.4932 50.8264 41.8004C50.8264 36.1085 46.2107 31.4928 40.5179 31.4928C34.8252 31.4928 30.2078 36.1085 30.2078 41.8004C30.2078 47.4941 34.826 52.1097 40.5179 52.1097ZM44.8906 52.8114H36.1435C28.8657 52.8114 22.9448 58.7332 22.9448 66.0101V76.708L22.972 76.8747L23.7088 77.1062C30.6542 79.2755 36.6882 80 41.6547 80C51.3553 80 56.9779 77.2352 57.3244 77.058L58.013 76.7089H58.0867V66.0101C58.0893 58.7332 52.1684 52.8114 44.8906 52.8114ZM61.9462 42.1705H53.2667C53.1728 45.6432 51.6904 48.7695 49.3457 51.0194C55.8148 52.943 60.548 58.941 60.548 66.0268V69.324C69.1179 69.0091 74.0563 66.5803 74.3817 66.418L75.0703 66.0689H75.144V55.3684C75.144 48.0914 69.2231 42.1705 61.9462 42.1705ZM22.4308 41.4662C24.4474 41.4662 26.3237 40.8785 27.9131 39.8759C28.4183 36.5804 30.185 33.7006 32.7086 31.7393C32.7191 31.5463 32.7375 31.3551 32.7375 31.1604C32.7375 25.4667 28.1219 20.8519 22.4308 20.8519C16.7363 20.8519 12.1224 25.4667 12.1224 31.1604C12.1215 36.8523 16.7363 41.4662 22.4308 41.4662ZM31.6875 51.0194C29.3543 48.7817 27.8771 45.6704 27.7692 42.2205C27.4473 42.1969 27.1289 42.1705 26.8009 42.1705H18.0546C10.7768 42.1705 4.85596 48.0914 4.85596 55.3684V66.0662L4.88315 66.232L5.61997 66.4636C11.1917 68.2039 16.1644 69.0047 20.4835 69.2582V66.0268C20.4853 58.941 25.2176 52.943 31.6875 51.0194Z" fill="black"/>
</svg>
