<svg width="80" height="80" viewBox="0 0 80 80" fill="none" xmlns="http://www.w3.org/2000/svg">
<g clip-path="url(#clip0_0_70)">
<path d="M79.2774 25.3922L40.696 3.67171C40.2638 3.42844 39.7363 3.42844 39.3042 3.67171L0.722612 25.3922C0.276245 25.6436 -0.000163193 26.1163 7.22867e-08 26.6286V76.0836C7.22867e-08 76.3195 0.191184 76.5107 0.426939 76.5107H8.93992C9.17567 76.5107 9.36686 76.3195 9.36686 76.0836V34.1122H70.633V76.0838C70.633 76.3197 70.8242 76.5109 71.0599 76.5109H79.5729C79.8087 76.5109 80 76.3197 80 76.0838V26.6283C80 26.1161 79.7239 25.6436 79.2774 25.3922Z" fill="black"/>
<path d="M63.9923 63.2573H53.5757C52.7922 63.2573 52.1572 63.8924 52.1572 64.6758V75.0927C52.1572 75.8763 52.7923 76.5112 53.5757 76.5112H63.9923C64.7758 76.5112 65.4109 75.8763 65.4109 75.0927V64.6758C65.4109 63.8923 64.7758 63.2573 63.9923 63.2573Z" fill="black"/>
<path d="M45.2083 63.2573H34.7917C34.0082 63.2573 33.373 63.8924 33.373 64.6758V75.0927C33.373 75.8763 34.0082 76.5112 34.7917 76.5112H45.2083C45.9918 76.5112 46.6268 75.8763 46.6268 75.0927V64.6758C46.6269 63.8923 45.9918 63.2573 45.2083 63.2573Z" fill="black"/>
<path d="M26.4245 63.2573H16.0078C15.2245 63.2573 14.5894 63.8924 14.5894 64.6758V75.0927C14.5894 75.8763 15.2246 76.5112 16.0078 76.5112H26.4245C27.2078 76.5112 27.8429 75.8763 27.8429 75.0927V64.6758C27.8429 63.8923 27.2076 63.2573 26.4245 63.2573Z" fill="black"/>
<path d="M63.9923 44.0924H53.5757C52.7922 44.0924 52.1572 44.7275 52.1572 45.5109V55.9278C52.1572 56.7112 52.7923 57.3463 53.5757 57.3463H63.9923C64.7758 57.3463 65.4109 56.7112 65.4109 55.9278V45.5109C65.4109 44.7273 64.7758 44.0924 63.9923 44.0924Z" fill="black"/>
<path d="M45.2083 44.0924H34.7917C34.0082 44.0924 33.373 44.7275 33.373 45.5109V55.9278C33.373 56.7112 34.0082 57.3463 34.7917 57.3463H45.2083C45.9918 57.3463 46.6268 56.7112 46.6268 55.9278V45.5109C46.6269 44.7273 45.9918 44.0924 45.2083 44.0924Z" fill="black"/>
<path d="M26.4245 44.0924H16.0078C15.2245 44.0924 14.5894 44.7275 14.5894 45.5109V55.9278C14.5894 56.7112 15.2246 57.3463 16.0078 57.3463H26.4245C27.2078 57.3463 27.8429 56.7112 27.8429 55.9278V45.5109C27.8429 44.7273 27.2076 44.0924 26.4245 44.0924Z" fill="black"/>
</g>
<defs>
<clipPath id="clip0_0_70">
<rect width="80" height="80" fill="white"/>
</clipPath>
</defs>
</svg>
