<svg width="80" height="80" viewBox="0 0 80 80" fill="none" xmlns="http://www.w3.org/2000/svg">
<g clip-path="url(#clip0_39_6)">
<path d="M13.7595 55.1569C10.593 54.6199 7.59314 56.7679 7.05613 59.9345C7.00057 60.2678 6.98206 60.5826 6.98206 60.8974C6.98206 64.1009 9.59305 66.7119 12.7966 66.7119C16.0187 66.6934 18.6112 64.1009 18.6112 60.8974C18.6112 60.5641 18.5927 60.2493 18.5371 59.9345C18.1297 57.4901 16.2039 55.5643 13.7595 55.1569Z" fill="black"/>
<path d="M0.574926 41.8797C0.223089 42.0278 -0.0176409 42.3982 0.000876804 42.7871V56.7679C0.000876804 56.805 0.000876804 56.842 0.000876804 56.879C0.0193945 57.379 0.426784 57.7494 0.926762 57.7308H3.77849C4.74141 54.9347 6.9265 52.7681 9.70415 51.8052C14.6854 50.1016 20.1111 52.7496 21.8147 57.7308H24.2591V39.3983H6.408L0.574926 41.8797Z" fill="black"/>
<path d="M24.2405 27.3988C24.2405 27.3988 24.2405 27.3803 24.2405 27.3618C24.222 26.8248 23.7776 26.4174 23.2591 26.4359H14.4262C14.0558 26.4359 13.704 26.6581 13.5373 26.9914L9.05603 35.6948H24.2405V27.3988Z" fill="black"/>
<path d="M66.2757 55.0642C63.424 55.0642 60.9982 57.1197 60.5353 59.9344C60.4797 60.2677 60.4612 60.5825 60.4612 60.8973C60.4612 64.1009 63.0722 66.7119 66.2757 66.7119C69.4793 66.6934 72.0903 64.1009 72.0903 60.8788C72.1088 60.5825 72.0718 60.2862 72.0348 59.9899C71.5718 57.1567 69.146 55.0827 66.2757 55.0642Z" fill="black"/>
<path d="M27.9627 42.3611H77.9605V13.2883H22.4073V22.7324H23.2777C23.2962 22.7324 23.3147 22.7324 23.3332 22.7324C25.9072 22.7509 27.9812 24.8249 27.9627 27.3988V42.3611Z" fill="black"/>
<path d="M79.0715 46.0647H27.9626V57.7308H57.2391C58.2021 54.9347 60.3871 52.7681 63.1648 51.8052C68.1461 50.1016 73.5718 52.7496 75.2754 57.7308H79.053C79.09 57.7308 79.1271 57.7308 79.1641 57.7308C79.6641 57.6938 80.0344 57.2679 79.9974 56.7864V47.1202C79.9974 46.5647 79.627 46.0647 79.0715 46.0647Z" fill="black"/>
</g>
<defs>
<clipPath id="clip0_39_6">
<rect width="80" height="80" fill="white"/>
</clipPath>
</defs>
</svg>
