<svg width="24" height="22" viewBox="0 0 24 22" fill="none" xmlns="http://www.w3.org/2000/svg">
<path d="M23.0584 20.5695L16.319 14.1787C17.5972 12.6822 18.3667 10.7797 18.3667 8.70837C18.3667 3.9066 14.247 0 9.18333 0C4.11964 0 0 3.9066 0 8.70837C0 13.5101 4.11969 17.4167 9.18337 17.4167C11.3677 17.4167 13.374 16.687 14.9521 15.4749L21.6915 21.8658C21.8803 22.0447 22.1863 22.0447 22.3751 21.8658L23.0585 21.2177C23.2472 21.0387 23.2472 20.7485 23.0584 20.5695ZM9.18337 15.5834C5.18549 15.5834 1.93335 12.4995 1.93335 8.70837C1.93335 4.91727 5.18549 1.83335 9.18337 1.83335C13.1813 1.83335 16.4334 4.91727 16.4334 8.70837C16.4334 12.4995 13.1813 15.5834 9.18337 15.5834Z" fill="#898989"/>
</svg>
