<svg width="25" height="19" viewBox="0 0 25 19" fill="none" xmlns="http://www.w3.org/2000/svg">
<path d="M22.6562 0.125H2.34377C1.05133 0.125 0 1.17633 0 2.46877V16.5313C0 17.8237 1.05133 18.875 2.34377 18.875H22.6562C23.9487 18.875 25 17.8237 25 16.5313V2.46877C25 1.17633 23.9487 0.125 22.6562 0.125ZM22.6562 1.68749C22.7624 1.68749 22.8634 1.70952 22.9557 1.74798L12.5 10.81L2.04427 1.74798C2.13659 1.70957 2.23757 1.68749 2.34371 1.68749H22.6562ZM22.6562 17.3125H2.34377C1.91271 17.3125 1.56249 16.9623 1.56249 16.5312V3.39877L11.9881 12.4343C12.1353 12.5616 12.3177 12.625 12.5 12.625C12.6823 12.625 12.8647 12.5617 13.0119 12.4343L23.4375 3.39877V16.5313C23.4375 16.9623 23.0873 17.3125 22.6562 17.3125Z" fill="black"/>
</svg>
