<svg width="340" height="121" viewBox="0 0 340 121" fill="none" xmlns="http://www.w3.org/2000/svg">
<path d="M102.688 30.1875H121C124.625 30.1875 127.323 30.3438 129.094 30.6562C130.885 30.9479 132.479 31.5729 133.875 32.5312C135.292 33.4896 136.469 34.7708 137.406 36.375C138.344 37.9583 138.812 39.7396 138.812 41.7188C138.812 43.8646 138.229 45.8333 137.062 47.625C135.917 49.4167 134.354 50.7604 132.375 51.6562C135.167 52.4688 137.312 53.8542 138.812 55.8125C140.312 57.7708 141.062 60.0729 141.062 62.7188C141.062 64.8021 140.573 66.8333 139.594 68.8125C138.635 70.7708 137.312 72.3438 135.625 73.5312C133.958 74.6979 131.896 75.4167 129.438 75.6875C127.896 75.8542 124.177 75.9583 118.281 76H102.688V30.1875ZM111.938 37.8125V48.4062H118C121.604 48.4062 123.844 48.3542 124.719 48.25C126.302 48.0625 127.542 47.5208 128.438 46.625C129.354 45.7083 129.812 44.5104 129.812 43.0312C129.812 41.6146 129.417 40.4688 128.625 39.5938C127.854 38.6979 126.698 38.1562 125.156 37.9688C124.24 37.8646 121.604 37.8125 117.25 37.8125H111.938ZM111.938 56.0312V68.2812H120.5C123.833 68.2812 125.948 68.1875 126.844 68C128.219 67.75 129.333 67.1458 130.188 66.1875C131.062 65.2083 131.5 63.9062 131.5 62.2812C131.5 60.9062 131.167 59.7396 130.5 58.7812C129.833 57.8229 128.865 57.125 127.594 56.6875C126.344 56.25 123.615 56.0312 119.406 56.0312H111.938ZM148.625 42.8125H157.062V63.6562L170.562 42.8125H179.188V76H170.75V54.7812L157.062 76H148.625V42.8125ZM217.156 52.625L208.5 54.1875C208.208 52.4583 207.542 51.1562 206.5 50.2812C205.479 49.4062 204.146 48.9688 202.5 48.9688C200.312 48.9688 198.562 49.7292 197.25 51.25C195.958 52.75 195.312 55.2708 195.312 58.8125C195.312 62.75 195.969 65.5312 197.281 67.1562C198.615 68.7812 200.396 69.5938 202.625 69.5938C204.292 69.5938 205.656 69.125 206.719 68.1875C207.781 67.2292 208.531 65.5938 208.969 63.2812L217.594 64.75C216.698 68.7083 214.979 71.6979 212.438 73.7188C209.896 75.7396 206.49 76.75 202.219 76.75C197.365 76.75 193.49 75.2188 190.594 72.1562C187.719 69.0938 186.281 64.8542 186.281 59.4375C186.281 53.9583 187.729 49.6979 190.625 46.6562C193.521 43.5938 197.438 42.0625 202.375 42.0625C206.417 42.0625 209.625 42.9375 212 44.6875C214.396 46.4167 216.115 49.0625 217.156 52.625ZM221.812 58.9375C221.812 56.0208 222.531 53.1979 223.969 50.4688C225.406 47.7396 227.438 45.6562 230.062 44.2188C232.708 42.7812 235.656 42.0625 238.906 42.0625C243.927 42.0625 248.042 43.6979 251.25 46.9688C254.458 50.2188 256.062 54.3333 256.062 59.3125C256.062 64.3333 254.438 68.5 251.188 71.8125C247.958 75.1042 243.885 76.75 238.969 76.75C235.927 76.75 233.021 76.0625 230.25 74.6875C227.5 73.3125 225.406 71.3021 223.969 68.6562C222.531 65.9896 221.812 62.75 221.812 58.9375ZM230.812 59.4062C230.812 62.6979 231.594 65.2188 233.156 66.9688C234.719 68.7188 236.646 69.5938 238.938 69.5938C241.229 69.5938 243.146 68.7188 244.688 66.9688C246.25 65.2188 247.031 62.6771 247.031 59.3438C247.031 56.0938 246.25 53.5938 244.688 51.8438C243.146 50.0938 241.229 49.2188 238.938 49.2188C236.646 49.2188 234.719 50.0938 233.156 51.8438C231.594 53.5938 230.812 56.1146 230.812 59.4062ZM257.406 42.8125H287.438V49.9062H276.812V76H268.031V49.9062H257.406V42.8125Z" fill="black"/>
<path d="M98.9609 90.6016C98.9609 89.5078 99.2305 88.4492 99.7695 87.4258C100.309 86.4023 101.07 85.6211 102.055 85.082C103.047 84.543 104.152 84.2734 105.371 84.2734C107.254 84.2734 108.797 84.8867 110 86.1133C111.203 87.332 111.805 88.875 111.805 90.7422C111.805 92.625 111.195 94.1875 109.977 95.4297C108.766 96.6641 107.238 97.2812 105.395 97.2812C104.254 97.2812 103.164 97.0234 102.125 96.5078C101.094 95.9922 100.309 95.2383 99.7695 94.2461C99.2305 93.2461 98.9609 92.0312 98.9609 90.6016ZM102.336 90.7773C102.336 92.0117 102.629 92.957 103.215 93.6133C103.801 94.2695 104.523 94.5977 105.383 94.5977C106.242 94.5977 106.961 94.2695 107.539 93.6133C108.125 92.957 108.418 92.0039 108.418 90.7539C108.418 89.5352 108.125 88.5977 107.539 87.9414C106.961 87.2852 106.242 86.957 105.383 86.957C104.523 86.957 103.801 87.2852 103.215 87.9414C102.629 88.5977 102.336 89.543 102.336 90.7773ZM114.266 84.5547H125.316V97H122.023V87.2148H117.559V97H114.266V84.5547ZM127.426 84.5547H138.688V87.2148H134.703V97H131.41V87.2148H127.426V84.5547ZM139.578 90.6016C139.578 89.5078 139.848 88.4492 140.387 87.4258C140.926 86.4023 141.688 85.6211 142.672 85.082C143.664 84.543 144.77 84.2734 145.988 84.2734C147.871 84.2734 149.414 84.8867 150.617 86.1133C151.82 87.332 152.422 88.875 152.422 90.7422C152.422 92.625 151.812 94.1875 150.594 95.4297C149.383 96.6641 147.855 97.2812 146.012 97.2812C144.871 97.2812 143.781 97.0234 142.742 96.5078C141.711 95.9922 140.926 95.2383 140.387 94.2461C139.848 93.2461 139.578 92.0312 139.578 90.6016ZM142.953 90.7773C142.953 92.0117 143.246 92.957 143.832 93.6133C144.418 94.2695 145.141 94.5977 146 94.5977C146.859 94.5977 147.578 94.2695 148.156 93.6133C148.742 92.957 149.035 92.0039 149.035 90.7539C149.035 89.5352 148.742 88.5977 148.156 87.9414C147.578 87.2852 146.859 86.957 146 86.957C145.141 86.957 144.418 87.2852 143.832 87.9414C143.246 88.5977 142.953 89.543 142.953 90.7773ZM155.047 84.5547H162.254C163.73 84.5547 164.836 84.8242 165.57 85.3633C166.305 85.9023 166.672 86.7148 166.672 87.8008C166.672 88.4961 166.469 89.1016 166.062 89.6172C165.664 90.1328 165.16 90.4766 164.551 90.6484C165.41 90.8594 166.051 91.2539 166.473 91.832C166.895 92.4102 167.105 93.043 167.105 93.7305C167.105 94.6992 166.75 95.4883 166.039 96.0977C165.328 96.6992 164.277 97 162.887 97H155.047V84.5547ZM158.363 89.7227H160.484C161.508 89.7227 162.246 89.5938 162.699 89.3359C163.16 89.0781 163.391 88.6719 163.391 88.1172C163.391 87.5938 163.176 87.2227 162.746 87.0039C162.324 86.7773 161.57 86.6641 160.484 86.6641H158.363V89.7227ZM158.363 94.8906H160.965C161.902 94.8906 162.586 94.7773 163.016 94.5508C163.445 94.3242 163.66 93.918 163.66 93.332C163.66 92.7227 163.414 92.3047 162.922 92.0781C162.43 91.8438 161.473 91.7266 160.051 91.7266H158.363V94.8906ZM169.801 84.5547H173.094V89.7227H176.398C177.695 89.7227 178.684 89.8164 179.363 90.0039C180.051 90.1836 180.629 90.582 181.098 91.1992C181.574 91.8164 181.812 92.543 181.812 93.3789C181.812 94.582 181.398 95.4883 180.57 96.0977C179.742 96.6992 178.5 97 176.844 97H169.801V84.5547ZM173.094 94.9141H176.152C176.949 94.9141 177.527 94.7891 177.887 94.5391C178.246 94.2891 178.426 93.8828 178.426 93.3203C178.426 92.7188 178.191 92.3086 177.723 92.0898C177.262 91.8633 176.43 91.75 175.227 91.75H173.094V94.9141ZM183.688 84.5547H186.98V97H183.688V84.5547ZM190.203 84.5547H193.367V92.3711L198.43 84.5547H201.664V97H198.5V89.043L193.367 97H190.203V84.5547ZM198.09 79.5039H199.695C199.602 80.5664 199.227 81.4023 198.57 82.0117C197.922 82.6133 197.078 82.9141 196.039 82.9141C195 82.9141 194.152 82.6133 193.496 82.0117C192.848 81.4023 192.477 80.5664 192.383 79.5039H193.988C194.043 80.0586 194.238 80.4805 194.574 80.7695C194.91 81.0508 195.398 81.1914 196.039 81.1914C196.68 81.1914 197.168 81.0508 197.504 80.7695C197.84 80.4805 198.035 80.0586 198.09 79.5039ZM222.582 88.2344L219.336 88.8203C219.227 88.1719 218.977 87.6836 218.586 87.3555C218.203 87.0273 217.703 86.8633 217.086 86.8633C216.266 86.8633 215.609 87.1484 215.117 87.7188C214.633 88.2812 214.391 89.2266 214.391 90.5547C214.391 92.0312 214.637 93.0742 215.129 93.6836C215.629 94.293 216.297 94.5977 217.133 94.5977C217.758 94.5977 218.27 94.4219 218.668 94.0703C219.066 93.7109 219.348 93.0977 219.512 92.2305L222.746 92.7812C222.41 94.2656 221.766 95.3867 220.812 96.1445C219.859 96.9023 218.582 97.2812 216.98 97.2812C215.16 97.2812 213.707 96.707 212.621 95.5586C211.543 94.4102 211.004 92.8203 211.004 90.7891C211.004 88.7344 211.547 87.1367 212.633 85.9961C213.719 84.8477 215.188 84.2734 217.039 84.2734C218.555 84.2734 219.758 84.6016 220.648 85.2578C221.547 85.9062 222.191 86.8984 222.582 88.2344ZM224.961 84.5547H228.242V89.6406C228.789 89.5781 229.176 89.4102 229.402 89.1367C229.629 88.8633 229.902 88.2656 230.223 87.3438C230.645 86.1172 231.105 85.332 231.605 84.9883C232.105 84.6445 232.762 84.4727 233.574 84.4727C233.824 84.4727 234.258 84.4922 234.875 84.5312L234.887 86.7109C234.02 86.7109 233.465 86.793 233.223 86.957C232.98 87.1289 232.719 87.6406 232.438 88.4922C232.055 89.6406 231.504 90.3477 230.785 90.6133C231.824 90.9023 232.703 91.8047 233.422 93.3203C233.461 93.3984 233.504 93.4805 233.551 93.5664L235.391 97H231.852L230.211 93.4023C229.875 92.6758 229.582 92.2109 229.332 92.0078C229.09 91.7969 228.727 91.6914 228.242 91.6914V97H224.961V84.5547ZM238.309 84.5547H249.336V97H246.055V87.2266H241.566V92.8164C241.566 94.2383 241.402 95.2383 241.074 95.8164C240.746 96.3867 240.383 96.7617 239.984 96.9414C239.586 97.1211 238.945 97.2109 238.062 97.2109C237.539 97.2109 236.848 97.1406 235.988 97V94.5742C236.059 94.5742 236.242 94.582 236.539 94.5977C236.883 94.6211 237.148 94.6328 237.336 94.6328C237.781 94.6328 238.055 94.4883 238.156 94.1992C238.258 93.9023 238.309 93.0859 238.309 91.75V84.5547ZM255.137 88.3516L252.148 87.8125C252.484 86.6094 253.062 85.7188 253.883 85.1406C254.703 84.5625 255.922 84.2734 257.539 84.2734C259.008 84.2734 260.102 84.4492 260.82 84.8008C261.539 85.1445 262.043 85.5859 262.332 86.125C262.629 86.6562 262.777 87.6367 262.777 89.0664L262.742 92.9102C262.742 94.0039 262.793 94.8125 262.895 95.3359C263.004 95.8516 263.203 96.4062 263.492 97H260.234C260.148 96.7812 260.043 96.457 259.918 96.0273C259.863 95.832 259.824 95.7031 259.801 95.6406C259.238 96.1875 258.637 96.5977 257.996 96.8711C257.355 97.1445 256.672 97.2812 255.945 97.2812C254.664 97.2812 253.652 96.9336 252.91 96.2383C252.176 95.543 251.809 94.6641 251.809 93.6016C251.809 92.8984 251.977 92.2734 252.312 91.7266C252.648 91.1719 253.117 90.75 253.719 90.4609C254.328 90.1641 255.203 89.9062 256.344 89.6875C257.883 89.3984 258.949 89.1289 259.543 88.8789V88.5508C259.543 87.918 259.387 87.4688 259.074 87.2031C258.762 86.9297 258.172 86.793 257.305 86.793C256.719 86.793 256.262 86.9102 255.934 87.1445C255.605 87.3711 255.34 87.7734 255.137 88.3516ZM259.543 91.0234C259.121 91.1641 258.453 91.332 257.539 91.5273C256.625 91.7227 256.027 91.9141 255.746 92.1016C255.316 92.4062 255.102 92.793 255.102 93.2617C255.102 93.7227 255.273 94.1211 255.617 94.457C255.961 94.793 256.398 94.9609 256.93 94.9609C257.523 94.9609 258.09 94.7656 258.629 94.375C259.027 94.0781 259.289 93.7148 259.414 93.2852C259.5 93.0039 259.543 92.4688 259.543 91.6797V91.0234ZM276.324 97H266.902V100.281H264.23V94.3047H265.578C266.141 93.6797 266.605 92.7031 266.973 91.375C267.34 90.0469 267.559 87.7734 267.629 84.5547H277.672V94.3047H279.008V100.281H276.324V97ZM274.414 94.3047L274.426 87.2617H270.441C270.309 90.6992 269.762 93.0469 268.801 94.3047H274.414Z" fill="black"/>
<g clip-path="url(#clip0_0_194)">
<path d="M71.2902 86.277V45.5679L17.5531 48.3697V89.0788C17.5529 90.0117 17.9326 90.9444 18.6919 91.4775L39.9794 106.421C41.4934 107.484 43.3586 107.484 44.8726 106.421L70.1513 88.6757C70.9107 88.1428 71.2904 87.2099 71.2902 86.277Z" fill="url(#paint0_linear_0_194)"/>
<path d="M86.6808 55.4068L74.0214 46.5197C73.6037 46.2265 73.6022 45.4942 74.0185 45.1983L86.8613 36.0703C88.352 35.0239 88.3857 32.4223 86.9228 31.3192L66.4644 15.8933C64.9319 14.7378 63.0009 14.7008 61.4393 15.7971L48.5455 24.959C47.3722 25.7929 45.9212 25.7975 44.7442 24.9711L31.8556 15.9234C30.0466 14.6534 27.8097 14.6962 26.0344 16.0348L2.33522 33.9044C0.640707 35.1821 0.679723 38.1959 2.40655 39.4082L14.2481 47.721C14.6666 48.0146 14.6671 48.7487 14.2493 49.0436L1.13863 58.2933C-0.379543 59.3591 -0.379543 62.0234 1.13863 63.0893L22.4269 78.0337C23.9408 79.0964 25.806 79.0964 27.3198 78.0337L39.7345 69.2752C40.9064 68.4485 42.3524 68.4466 43.5258 69.2702L56.3525 78.2745C58.1061 79.5056 60.2667 79.5056 62.0205 78.2745L86.6812 60.9626C88.4395 59.7277 88.4395 56.6413 86.6808 55.4068Z" fill="url(#paint1_linear_0_194)"/>
<path d="M18.6919 45.9716L43.9705 28.2259C45.4846 27.163 47.3498 27.163 48.8638 28.2259L70.1512 43.1697C71.6698 44.2358 71.6698 46.9005 70.1512 47.9665L44.8725 65.7122C43.3585 66.7751 41.4933 66.7751 39.9793 65.7122L18.6919 50.7684C17.1735 49.7024 17.1735 47.0376 18.6919 45.9716Z" fill="url(#paint2_linear_0_194)"/>
<path d="M69.4916 81.5068L67.1037 77.1516L64.7157 84.8594L65.9731 83.9766V86.5877L68.2342 85.0004V82.3894L69.4916 81.5068Z" fill="#5D3645"/>
<path d="M69.4916 84.7732L64.7157 88.1259V89.5383L69.4916 86.1855V84.7732Z" fill="#5D3645"/>
</g>
<defs>
<linearGradient id="paint0_linear_0_194" x1="38.131" y1="76.3933" x2="45.5129" y2="76.3933" gradientUnits="userSpaceOnUse">
<stop stop-color="#CC8241"/>
<stop offset="1" stop-color="#DEA861"/>
</linearGradient>
<linearGradient id="paint1_linear_0_194" x1="0.272723" y1="14.6287" x2="77.1436" y2="53.185" gradientUnits="userSpaceOnUse">
<stop stop-color="#DEA861"/>
<stop offset="0.328" stop-color="#E3B67B"/>
<stop offset="0.7518" stop-color="#E9C596"/>
<stop offset="1" stop-color="#EBCBA0"/>
</linearGradient>
<linearGradient id="paint2_linear_0_194" x1="52.0423" y1="46.9691" x2="27.1557" y2="46.9691" gradientUnits="userSpaceOnUse">
<stop stop-color="#CC8241"/>
<stop offset="1" stop-color="#DEA861"/>
</linearGradient>
<clipPath id="clip0_0_194">
<rect width="88" height="107" fill="white"/>
</clipPath>
</defs>
</svg>
