<svg width="31" height="31" viewBox="0 0 31 31" fill="none" xmlns="http://www.w3.org/2000/svg">
<g clip-path="url(#clip0_0_26)">
<path d="M7.48228 16.3507L21.8207 30.6494C22.2905 31.1176 23.0511 31.1169 23.5201 30.647C23.9887 30.1772 23.9875 29.4162 23.5176 28.9477L10.0327 15.4999L23.5181 2.0523C23.9879 1.58367 23.9891 0.823141 23.5205 0.353298C23.2854 0.117771 22.9774 7.55126e-06 22.6694 7.52433e-06C22.3622 7.49747e-06 22.0554 0.116985 21.8208 0.350876L7.48228 14.6493C7.25602 14.8744 7.12905 15.1807 7.12905 15.4999C7.12905 15.8191 7.25639 16.1251 7.48228 16.3507Z" fill="white"/>
</g>
<defs>
<clipPath id="clip0_0_26">
<rect width="31" height="31" fill="white" transform="translate(31 31) rotate(-180)"/>
</clipPath>
</defs>
</svg>
